<svg width="0" height="0" version="1.1" xmlns="http://www.w3.org/2000/svg" xmlns:xlink="http://www.w3.org/1999/xlink"><defs><symbol id="icon-caelumFooter-alura" viewBox="0 0 23 23"><circle fill="#657176" cx="11.5" cy="11.5" r="11.5"/><title>Page 1</title><path fill="#FFF" d="M15.6 4.1c-.9-.7-2.2-1.1-4.1-1.1-1 0-1.8.1-2.4.3-.7.2-1.3.5-1.7.8-.5.3-.8.8-1 1.2-.2.5-.3 1-.3 1.5v.6c0 .1.1.2.2.2h2.3c.1 0 .2-.1.2-.2 0-.5.2-1 .6-1.4.4-.4 1.1-.6 2.1-.6.5 0 1 .1 1.3.2.3.1.6.3.8.5.2.2.4.4.4.6.1.2.1.4.1.6v.6c0 .2 0 .5-.1.7 0 .1-.1.3-.2.4-.1.1-.3.2-.4.3-.1.1-.2.1-.3.2-.1 0-.3.1-.6.2s-.7.3-1.2.4c-.5.2-.9.3-1.4.5-.5.2-.9.3-1.3.4-.8.3-1.3.7-1.8 1.4-.4.6-.6 1.4-.6 2.2v1.5c0 .4.1.8.2 1.2.1.4.4.9.8 1.2.4.4 1 .7 1.6 1 .7.2 1.6.4 2.7.4s2-.1 2.7-.4c.7-.3 1.2-.6 1.6-1 .4-.4.7-.8.8-1.2.1-.4.2-.9.2-1.2V6.8c.1-1.1-.3-2-1.2-2.7zm-1.4 11.2c0 .8-.2 1.3-.6 1.8-.4.4-1.1.6-2.2.6-1 0-1.7-.2-2.1-.6-.4-.4-.6-1-.6-1.8 0-.4.1-.7.2-1 .2-.3.3-.5.5-.6.2-.2.5-.3.7-.4.3-.1.7-.2 1.1-.4.3-.1.7-.2 1-.4.4-.1.7-.2 1-.4.2-.1.3-.1.5-.2s.3-.3.3-.5v3.9z"/></symbol><symbol id="icon-caelumFooter-aluralingua" viewBox="0 0 30 30"><circle fill="#657177" cx="15" cy="15" r="15"/><path fill="none" d="M18.193 15.429c-.227.15-.427.224-.628.3-1.667.625-3.682.907-5.101 2.045-.27.249-.506.533-.699.845a2.147 2.147 0 0 0-.075.143 2.66 2.66 0 0 0-.243 1.169c.009 1.038.268 1.824.777 2.313.043.044.09.085.139.126.532.428 1.424.626 2.691.615.989-.008 1.753-.148 2.295-.419.232-.116.423-.256.574-.419.498-.548.743-1.315.734-2.301l-.036-4.182h-.001l-.006-.637-.001-.201a.87.87 0 0 1-.42.603z"/><path fill="#ABB1B2" d="M22.178 15.695l-.042-4.807-3.522 4.138.006.637h.002l.036 4.182c.009.986-.236 1.753-.734 2.301a1.928 1.928 0 0 1-.574.419c-.542.271-1.306.411-2.295.419-1.267.012-2.159-.187-2.691-.615l-2.248 2.641c.382.243.824.452 1.334.623.935.313 2.149.474 3.634.462 1.488-.013 2.697-.196 3.627-.526a8.35 8.35 0 0 0 .63-.251c1.758-.789 2.901-2.301 2.884-4.272l-.047-5.351z"/><path fill="#FFF" d="M12.225 22.243c-.509-.488-.768-1.275-.777-2.313-.003-.45.089-.845.243-1.169.023-.049.048-.097.075-.143.193-.312.429-.596.699-.845 1.419-1.138 3.433-1.42 5.101-2.045.201-.076.401-.151.628-.3a.869.869 0 0 0 .419-.605l.001.201 3.522-4.138-.018-2.036c-.013-1.431-.603-2.634-1.771-3.563a4.732 4.732 0 0 0-.869-.557c-1.133-.571-2.663-.844-4.588-.826-1.26.01-2.342.143-3.222.448-.906.255-1.659.632-2.235 1.08-.575.452-1 .973-1.272 1.593a4.653 4.653 0 0 0-.387 1.955l.006.713a.278.278 0 0 0 .28.271l3.074-.077c.152-.001.277-.102.276-.25.044-.691.291-1.31.714-1.808.499-.57 1.429-.852 2.842-.865.681-.006 1.287.064 1.741.206.264.085.501.187.71.305l.119.091.021-.007c.096.062.185.126.264.196.279.243.484.512.585.809.122.263.186.549.186.839l.007.79c.001.113-.007.226-.026.337l.035 4.072-.036-4.072c-.216 1.288-1.322 1.747-2.398 2.17-1.546.608-3.185 1.059-4.744 1.671-1.401.55-2.405 1.263-3.199 2.811-.268.67-.383 1.375-.395 2.123-.037 2.45.384 4.5 2.279 5.705l2.248-2.641a2.06 2.06 0 0 1-.138-.126z"/></symbol><symbol id="icon-caelumFooter-alurastart" viewBox="0 0 23 23"><circle fill="#657176" cx="11.5" cy="11.5" r="11.5"/><title>Page 1</title><path fill="#AAB1B2" d="M9 14.4s0-.1.1-.1c.1-.2.3-.5.5-.6 1.1-.9 2.6-1.1 3.9-1.6.2-.1.3-.1.5-.2s.3-.3.3-.5V8.1c-.2 1-1 1.3-1.8 1.7-1.2.5-2.4.8-3.6 1.3-1.1.4-1.8 1-2.4 2.1-.1 0 1.5-.3 2.5 1.2z"/><path fill="#FFF" d="M13.3 17.3c-.4.2-1 .3-1.7.3-1.1 0-1.8-.2-2.2-.6-.4-.4-.6-1-.6-1.8 0-.3.1-.6.2-.9-1-1.4-2.6-1.2-2.6-1.2-.2.5-.3 1-.3 1.6 0 2.2.4 4 2.7 4.8.7.2 1.6.4 2.8.4 1.1 0 2.1-.1 2.8-.4.2-.1.3-.1.5-.2-1.7-.4-1.6-2-1.6-2z"/><path fill="#AAB1B2" d="M17 12c-1.4.9-2.7 0-2.7 0v3.2c0 .8-.2 1.3-.6 1.8-.1.1-.3.2-.4.3 0 0-.1 1.6 1.5 2.1 1.3-.6 2.2-1.8 2.2-3.3V12z"/><path fill="#FFF" d="M14.3 12s1.3.9 2.7 0V6.8c0-1.1-.5-2-1.3-2.7-.2-.2-.4-.3-.7-.4 0 1.6-1.3 2.1-1.5 2.2.1 0 .1.1.2.1.2.2.4.4.4.6.1.2.1.4.1.6v4.2l.1.6z"/><path fill="#AAB1B2" d="M14.9 3.7c-.9-.4-2-.6-3.5-.6-1 0-1.8.1-2.5.3-.6.2-1.2.5-1.6.8-.5.4-.8.8-1 1.2-.2.5-.3 1-.3 1.5v.5c0 .1.1.2.2.2l2.3-.1c.1 0 .2-.1.2-.2 0-.5.2-1 .5-1.4.4-.4 1.1-.6 2.2-.7.5 0 1 0 1.3.2.2.1.4.1.5.2l.1.1c.3.1 1.6-.4 1.6-2z"/></symbol><symbol id="icon-caelumFooter-caelum" viewBox="0 0 22 22"><title>Logo-caelum</title><path d="M17.67.032H3.367A3.36 3.36 0 0 0 0 3.398v14.303a3.363 3.363 0 0 0 3.367 3.367H17.67a3.363 3.363 0 0 0 3.366-3.367V3.398A3.36 3.36 0 0 0 17.67.032zM3.567 3.502l.529-1.363.528 1.362 1.465.078-1.138.932.37 1.411-1.226-.795-1.228.795.37-1.411-1.13-.932 1.46-.078zM18.932 17.05c0 1.241-.59 1.914-1.824 1.914H4.101c-1.234 0-1.994-.673-1.994-1.914.02-7.596 7.101-14.94 15.001-14.911 1.234 0 1.824.67 1.824 1.906V17.05z" fill="#657176"/></symbol><symbol id="icon-caelumFooter-cdc" viewBox="0 0 19 25"><title>Logo-cdc</title><g fill="none"><path fill="#939697" d="M18.95 8.833V4.272v.123H4.308v15.673H18.95v.165-4.561H8.68v-6.84z"/><path fill="#657176" d="M8.786 20.068H4.308V4.395H18.95V.025H4.308L0 4.395v15.673l4.308 4.371H18.95v-4.371z"/></g></symbol><symbol id="icon-caelumFooter-guj" viewBox="0 0 23 23"><title>Logo-guj</title><g fill="none"><ellipse fill="#657176" cx="11.239" cy="11.179" rx="11.239" ry="11.179"/><path d="M9.196 5.456s-.157.127-.158.45c0 .323.157.45.157.45s.112.103.181.295c.09.251.062.54-.087.86-.549 1.18.014 1.929.388 2.16a.481.481 0 0 0 .664-.155.478.478 0 0 0-.156-.66c-.003-.002-.348-.24-.02-.943.409-.88.187-1.593-.097-2.006.285-.414.507-1.125.099-2.006-.326-.704.019-.94.022-.943a.478.478 0 0 0-.253-.887.482.482 0 0 0-.253.071c-.375.23-.94.978-.392 2.16.148.32.177.608.086.86a.808.808 0 0 1-.181.294zm3.118 3.401a.478.478 0 0 0 .253.888.481.481 0 0 0 .254-.072c.374-.23.938-.978.39-2.16-.147-.319-.176-.608-.085-.86.07-.19.181-.293.181-.293s.158-.127.158-.45c0-.324-.157-.451-.157-.451s-.111-.103-.18-.294c-.09-.252-.062-.54.087-.86.549-1.18-.014-1.93-.388-2.16a.482.482 0 0 0-.664.155c-.14.225-.07.52.156.66.003.002.348.24.02.943-.409.88-.187 1.592.097 2.006-.285.413-.508 1.125-.1 2.006.326.703-.019.94-.022.942z" fill="#939697"/><path d="M7.694 11.492l-2.224-.001h-.363A2.1 2.1 0 0 0 3 13.582a2.1 2.1 0 0 0 2.104 2.096l1.11.001c1.04 1.803 3.067 3.034 5.406 3.059 3.378-.03 6.112-2.578 6.158-5.734h.002l.001-1.505-6.155-.005-3.932-.003zm-2.604 2.7a.629.629 0 0 1-.63-.628.63.63 0 0 1 .631-.627h.378v.059h.002c.006.41.057.81.149 1.196h-.53z" fill="#FFF"/></g></symbol><symbol id="icon-caelumFooter-hipstersjobs" viewBox="0 0 23 25"><title>Logo-hipsters-jobs</title><defs><path id="a" d="M0 .042V23h22.958V.042H0z"/><path id="c" d="M14.24 0H.8v23.31h13.44V0z"/></defs><g fill="none" fill-rule="evenodd"><g transform="translate(0 2)"><mask id="b" fill="#fff"><use xlink:href="#a"/></mask><path d="M22.958 11.521c0 6.34-5.14 11.48-11.48 11.48C5.14 23 0 17.86 0 11.52 0 5.181 5.14.042 11.479.042c6.34 0 11.479 5.14 11.479 11.48" fill="#657176" mask="url(#b)"/></g><path d="M14.81 22.058l.001.075c0 .011 0 .022-.002.034v.02c0 .01-.003.017-.004.026a.313.313 0 0 1-.005.03c0 .007-.003.014-.005.021l-.007.03a.267.267 0 0 1-.013.04.363.363 0 0 0-.01.03h-.002a.423.423 0 0 1-.014.03c-.004.012-.01.022-.015.032-.006.01-.01.021-.017.031a.92.92 0 0 1-.18.218 1.14 1.14 0 0 1-.173.128l-.03.018-.042.022-.038.018c-.012.007-.026.012-.038.018-.023.01-.046.02-.07.028l-.01.004a.176.176 0 0 0-.03.01c-.027.01-.055.016-.083.024l-.038.01a1.409 1.409 0 0 1-.124.02l-.042.006a.59.59 0 0 1-.07.004l-.057.002a.771.771 0 0 1-.047-.002h-.028a21.55 21.55 0 0 1-.083-.01l-.03-.006-.035-.007-.052-.012-.04-.012a.875.875 0 0 1-.099-.035l-.039-.016-.057-.027a1.828 1.828 0 0 1-.255-.156l-.012-.009-.06-.046-.008-.007a.686.686 0 0 1-.081-.066l-.025-.02-.065-.059-.105-.099-.082-.08-.174-.178-.067-.067v-.002c-.2.197-.596.245-.77.245-.174 0-.569-.048-.768-.245l-.002.002-.066.067-.045.046-.023.023a7.308 7.308 0 0 1-.358.346c-.009.007-.016.015-.025.021a.868.868 0 0 1-.08.066l-.008.006a.643.643 0 0 1-.04.032l-.02.015-.012.01a1.931 1.931 0 0 1-.217.134c-.012.008-.026.014-.038.02a1.036 1.036 0 0 1-.162.068l-.034.011-.04.012a4.221 4.221 0 0 1-.052.012l-.035.007-.029.005-.084.01-.028.001a.708.708 0 0 1-.047.002c-.613 0-1.119-.42-1.119-.854a1.781 1.781 0 0 1 .007-.137v-.009l.001-.008.007-.055.002-.022.008-.047.007-.03.012-.057.017-.063.006-.02.014-.044.006-.015.021-.056.025-.06.017-.037a2.52 2.52 0 0 1 .07-.129l.023-.039c.02-.03.038-.059.057-.085l-.003-.005a1.535 1.535 0 0 1-.297-.908c0-.186.094-.37.25-.52.101-.098.23-.18.376-.239l.055.042.001.001.036.027c.1.074.198.146.296.214.382.27.747.495 1.081.666a4.373 4.373 0 0 0 .452.21c.31.125.581.191.796.191.212 0 .478-.059.778-.173.057-.022.116-.044.176-.07a6.23 6.23 0 0 0 .77-.39 9.94 9.94 0 0 0 1.035-.69c.141.065.263.153.357.255l.017.02a.703.703 0 0 1 .187.523l-.006.093a1.563 1.563 0 0 1-.293.754l.005.006a1.352 1.352 0 0 1 .086.133l.033.058a1.722 1.722 0 0 1 .07.154l.003.007.003.007.006.014.02.06a.613.613 0 0 1 .028.097l.008.033.012.055c.002.012.005.025.006.038l.002.01.006.037v.002l.006.053.005.073" fill="#A0A9AA"/><path d="M9.19 19.987a.395.395 0 0 1-.397.397.397.397 0 0 1-.392-.46h.001a.397.397 0 0 1 .392-.335l.033.002h.001a11.436 11.436 0 0 0 .332.241c.02.049.03.1.03.155m.238.579a.397.397 0 1 0 0 .795.397.397 0 0 0 0-.795m.794 1.354a.397.397 0 0 0-.159.76l.534-.493a.397.397 0 0 0-.375-.268m-1.497-.161a.397.397 0 1 1 0 .795.397.397 0 0 1 0-.795" fill="#9A9FA0"/><path d="M10.638 20.686l-.062.427-.009.062a.36.36 0 0 1-.093 0 .394.394 0 0 1-.351-.394c0-.111.045-.21.118-.282.095.049.188.095.277.135.041.018.08.036.12.052" fill="#E87575"/><path d="M14.883 21.984c-.039-.232-.07-.412-.178-.412a.397.397 0 1 0 .06.792l.076.002s.081-.151.042-.382" fill="#9A9FA0"/><path d="M13.482 20.642a.397.397 0 1 1-.78-.103 7.6 7.6 0 0 0 .51-.272.393.393 0 0 1 .27.375" fill="#E87575"/><path d="M12.39 21.177l-.083.789a.397.397 0 0 0 .083-.789m1.18.516a.397.397 0 1 1-.001.794.397.397 0 0 1 0-.794m1.031-.61l.169-.116.04-.592a.396.396 0 1 0-.245.709l.036-.001" fill="#9A9FA0"/><path d="M8.4 19.38a1.374 1.374 0 0 0-.41.396c.08.071.162.143.246.213a.936.936 0 0 1 .16-.2c.078-.076.17-.142.276-.195a12.178 12.178 0 0 1-.271-.214m6.21.037c-.061.05-.125.1-.19.15l.014.004c.128.056.17.191.183.251l.005.03a.772.772 0 0 1 .162.283c.089-.073.176-.147.26-.22a1.281 1.281 0 0 0-.433-.498" fill="#00AEC5"/><path d="M8.672 19.594a1.137 1.137 0 0 0-.276.194.917.917 0 0 0-.16.202l.076.064c.04.033.08.067.122.1a.392.392 0 0 1-.032-.229v-.001a.402.402 0 0 1 .284-.32l-.014-.01m5.95.258a.429.429 0 0 1-.06.08.395.395 0 0 1-.261.125h-.026a.394.394 0 0 1-.314-.154c-.213.148-.43.288-.646.416a.393.393 0 0 1 .168.323.398.398 0 0 1-.794.011c-.451.212-.87.344-1.2.344-.246 0-.542-.079-.865-.213l-.047.329-.01.062c-.015.002-.03.002-.046.002s-.031 0-.047-.002a.398.398 0 0 1-.293-.599 9.127 9.127 0 0 1-.87-.522l-.112-.016-.011-.002a.396.396 0 0 1-.475.339c.14.108.282.214.427.316a.397.397 0 0 1 .653.43 7.733 7.733 0 0 0 .65.355l.04.018c.065.032.13.06.194.088.296.123.568.2.802.215.027.002.053.003.08.003.208 0 .45-.052.715-.144l.068-.024.049-.455a.397.397 0 0 1 .34.292 9.333 9.333 0 0 0 1.38-.82c.023-.015.044-.031.066-.047a.398.398 0 0 1 .388-.312l.027.001c.038-.029.074-.059.11-.088l.083-.067a.768.768 0 0 0-.162-.284" fill="#9A9FA0"/><path d="M8.686 19.604a.4.4 0 0 0-.284.32.394.394 0 0 0 .032.23c.09.074.183.147.278.221a.387.387 0 0 0 .353-.1.387.387 0 0 0 .122-.239.097.097 0 0 1-.07-.109l.002-.006a11.449 11.449 0 0 1-.433-.317m.742.962a.396.396 0 0 0-.289.125c.216.153.435.298.653.43a.395.395 0 0 0-.364-.555m.752.01a.397.397 0 0 0 .294.599.367.367 0 0 0 .046.003c.016 0 .032-.002.047-.003l.009-.062.048-.33a5.444 5.444 0 0 1-.444-.207m3.134-.257a7.53 7.53 0 0 1-.626.334c.003.117.056.22.14.29.068.06.158.097.257.097a.398.398 0 0 0 .23-.721m-.925.858l-.048.455c.042-.016.085-.032.127-.05a5.18 5.18 0 0 0 .262-.113.398.398 0 0 0-.341-.292m2.174-.887a.397.397 0 0 0-.388.312h.001l.057-.04.014-.01c.117-.086.231-.173.343-.26h.001c-.009-.002-.019-.002-.028-.002" fill="#939697"/><path d="M16.598 11.005c1.872 0 1.139 3.077-.17 3.077l.17-3.077zm-10.344 0c-1.872 0-1.14 3.077.17 3.077l-.17-3.077z" fill="#FFF"/><path d="M17.314 3.157c-.383.047-.777.018-1.015-.22-.58-.581-1.866-2.614-4.092-2.614-2.227 0-3.656.925-4.517 2.243-.581.888-1.816 1.464-1.816 2.394 0 1.032.426 3.773.36 5.34 0 3.592.59 7.001.59 7.324 0 .635 3.214 3.373 4.665 3.373 1.45 0 4.634-2.545 4.634-3.373 0-.323.589-3.784.589-7.378-.046-1.131.17-3.403.29-4.953l.105-.14c.303-.387.5-.767.746-1.218a.531.531 0 0 0-.54-.778" fill="#A6B0B1"/><path d="M16.318 9.409c0 .927-.113 4.105-.249 5.645-.049.003-9.117.001-9.189-.009-.133-1.465-.245-4.71-.245-5.629 0-.846.228-2.425.32-3.016a.257.257 0 0 1 .268-.219l.445.026h.012l.28.017.851.048.27.016.071.004h.016c.984.055 1.998.108 2.31.107.106 0 .297-.006.541-.017 1.035-.043 3.032-.162 3.711-.202a.254.254 0 0 1 .27.216c.018.12.042.282.068.47.105.733.25 1.87.25 2.543" fill="#FFF"/><path d="M15.727 6.308h-.017c-.678.042-2.675.16-3.71.204-.245.01-.436.016-.543.016h-.005c-.318 0-1.326-.052-2.304-.106l-.015-.001-.072-.004c1.155 1.073 2.428 1.818 3.834 1.818.985 0 2.035-.366 3.154-1.24a74.505 74.505 0 0 0-.069-.47.256.256 0 0 0-.253-.217" fill="#E7F1F5"/><path d="M8.378 5.6c2.246 2.245 4.955 3.357 8.231.08L8.38 5.6z" fill="#A6B0B1"/><path d="M11.112 20.178c-.98 0-1.842-.129-1.913-.14a.097.097 0 0 1 .029-.192c.034.006 3.408.514 4.389-.468.662-.662.05-2.372.045-2.389a.097.097 0 1 1 .182-.066c.027.076.659 1.844-.09 2.593-.53.529-1.646.663-2.642.663" fill="#A0A9AA"/><path d="M10.073 19.228a16.9 16.9 0 0 1-2.08-.142.096.096 0 0 1-.083-.108.096.096 0 0 1 .11-.083c.008 0 .87.118 1.82.137 1.233.024 2.047-.126 2.355-.433.728-.73-.226-1.956-.236-1.968a.097.097 0 0 1 .152-.12c.044.055 1.071 1.374.221 2.224-.388.389-1.343.493-2.259.493" fill="#A0A9AA"/><path d="M9.78 18.204c-.312 0-.687-.021-1.126-.063-.886-.085-1.712-.23-1.721-.23a.097.097 0 0 1-.078-.113.096.096 0 0 1 .112-.078c.9.158 3.336.488 3.785.128a.188.188 0 0 0 .074-.15c.005-.282-.433-.726-.603-.873a.098.098 0 0 1-.01-.137.097.097 0 0 1 .138-.01c.069.06.677.602.668 1.025a.373.373 0 0 1-.146.295c-.17.138-.531.206-1.093.206m5.96.236a.097.097 0 0 1-.092-.062 79.206 79.206 0 0 0-.598-1.527.097.097 0 0 1 .18-.073c.273.675.528 1.342.6 1.53a.097.097 0 0 1-.09.132m1.428-14.076c-.434 0-1.016-.141-1.688-.42-1.83-.757-3.681-2.244-3.681-3.621 0-.053.044-.098.097-.098.054 0 .097.045.097.098 0 1.278 1.835 2.727 3.56 3.442 1.032.429 1.875.528 2.147.256a.097.097 0 0 1 .137.136c-.14.14-.368.207-.67.207m-.787 1.163c-.3 0-.647-.042-.964-.103-2.076-.395-4.908-1.795-6.057-4.441a.098.098 0 0 1 .05-.128.098.098 0 0 1 .128.05c1.118 2.578 3.886 3.943 5.916 4.329.81.154 1.359.112 1.48-.01a.097.097 0 0 1 .137 0 .097.097 0 0 1 0 .138c-.12.119-.378.165-.69.165" fill="#A0A9AA"/><path d="M14.287 6.44c-.451 0-.93-.041-1.414-.13-1.145-.21-3.944-.998-5.208-3.8a.097.097 0 0 1 .177-.08c1.226 2.719 3.95 3.486 5.066 3.69 1.587.29 3.108.08 3.697-.508a.098.098 0 0 1 .137 0c.038.038.038.1 0 .137-.446.446-1.37.692-2.455.692" fill="#A0A9AA"/><path d="M6.655 16.24c.026.213.05.405.073.575v.001l-.073-.576" fill="#00BDD6"/><path d="M16.453 14.675a.078.078 0 0 0-.075.052c-.05.134-.128.3-.244.456a1.23 1.23 0 0 1-1.029.526c-.354 0-.846-.441-1.517-.654h-1.331a2.16 2.16 0 0 0-.162.064l-1.284-.023c-.034-.015-.07-.028-.108-.042l-1.321-.001c-.676.21-1.171.656-1.526.656a1.38 1.38 0 0 1-.186-.013c-.463-.062-.75-.35-.923-.634a1.896 1.896 0 0 1-.165-.335.078.078 0 0 0-.106-.045 70.613 70.613 0 0 0 .253 2.134c.074.119.16.229.261.326.366.35.934.594 1.797.594.87 0 1.491-.172 1.916-.366a2.9 2.9 0 0 0-.48-.545.097.097 0 0 1 .127-.147c.048.042.345.307.527.606a2.11 2.11 0 0 0 .558-.41.052.052 0 0 1 .04-.016c.014 0 .027.005.037.017.092.097.362.345.87.55a2.897 2.897 0 0 0-.423-.794.098.098 0 0 1 .016-.136.096.096 0 0 1 .136.016c.025.03.366.47.502.998.33.108.74.193 1.242.219a5.298 5.298 0 0 0-.194-.738.096.096 0 0 1 .059-.124.096.096 0 0 1 .123.058c.011.032.133.373.212.81.039.002.079.002.119.002.46 0 .837-.08 1.144-.214l-.268-.671a.097.097 0 0 1 .09-.133c.038 0 .074.023.09.06l.261.658a1.826 1.826 0 0 0 .742-.74c.066-.514.154-1.21.235-2.02l-.015-.001" fill="#A0A9AA"/><path d="M12.894 14.944a1.94 1.94 0 0 0-.638.11h1.332a2.299 2.299 0 0 0-.694-.11m-2.826 0c-.247 0-.475.043-.686.109h1.32c-.185-.064-.4-.11-.634-.11" fill="#E8E9E4"/><path d="M13.753 16.86a.097.097 0 0 0-.091.13c.002.007.116.325.193.738.065.003.13.006.2.007a5.363 5.363 0 0 0-.211-.812.096.096 0 0 0-.091-.063m-1.718-.387a.097.097 0 0 0-.076.157c.005.007.278.358.422.794.072.03.15.058.232.085a3.009 3.009 0 0 0-.502-.999.097.097 0 0 0-.076-.037m-1.748.182a.096.096 0 0 0-.073.033.098.098 0 0 0 .009.137 2.9 2.9 0 0 1 .48.545c.063-.028.12-.057.175-.086a2.926 2.926 0 0 0-.528-.605.096.096 0 0 0-.063-.024m4.853.063a.097.097 0 0 0-.09.133c.093.23.185.46.267.67.061-.027.119-.055.175-.085a60.027 60.027 0 0 0-.263-.657.096.096 0 0 0-.089-.061" fill="#9A9FA0"/><path d="M15.912 16.356c-.368.355-.921.605-1.733.605-1.73 0-2.492-.682-2.662-.861a.052.052 0 0 0-.076 0c-.168.18-.92.86-2.648.86-.863 0-1.431-.243-1.798-.593-.692-.661-.668-1.906-.561-2.403.017-.078.125-.087.154-.012.037.1.09.217.163.335.174.284.462.573.925.634.059.009.12.013.185.013.466 0 1.172-.765 2.212-.765.283 0 .534.065.744.152l1.284.023a1.96 1.96 0 0 1 .798-.175c1.039 0 1.746.765 2.212.765a1.23 1.23 0 0 0 1.029-.526c.116-.156.193-.322.244-.456.028-.075.136-.067.153.01.107.494.06 1.73-.625 2.394" fill="#A0A9AA"/><path d="M11.983 13.53c.091.353.168.674.168.753 0 .194-.338.484-.726.484-.387 0-.726-.29-.726-.484 0-.128.204-.9.342-1.408" fill="#FFF"/><g transform="translate(4)"><mask id="d" fill="#fff"><use xlink:href="#c"/></mask><path d="M12.925 5.239l-.018.022-.002.029a3.365 3.365 0 0 1-.377.412l-.225.213-.232.204-.145.12a8.102 8.102 0 0 1-.846.613 5.455 5.455 0 0 1-1.1.536 4.223 4.223 0 0 1-1.19.234 4.23 4.23 0 0 1-.606-.016 4.302 4.302 0 0 1-.597-.111 4.922 4.922 0 0 1-1.132-.455 7.375 7.375 0 0 1-1.023-.684c-.326-.252-.615-.545-.966-.78a.035.035 0 0 0-.037 0 .035.035 0 0 0-.01.048c.142.21.316.39.502.557l-.104-.005c-.662-.038-1.27-.075-1.587-.094a.35.35 0 0 0-.371.3c-.096.628-.32 2.181-.32 3.026 0 .77.073 2.997.17 4.584a1.147 1.147 0 0 1-.03-.075.175.175 0 0 0-.18-.112h-.005a41.378 41.378 0 0 1-.161-3.502c.039-.937-.095-2.269-.212-3.444-.08-.795-.15-1.484-.15-1.9 0-.533.458-.958.943-1.407.31-.288.63-.585.858-.933.952-1.46 2.445-2.2 4.435-2.2 1.813 0 2.977 1.37 3.673 2.19.136.16.253.297.352.397.225.226.593.31 1.094.248a.436.436 0 0 1 .442.636 11.01 11.01 0 0 1-.843 1.349zm-.273 8.811a4.181 4.181 0 0 0-.018-.095c.09-1.033.146-2.015.167-2.937 1.513.205.965 2.725-.15 3.032zm-.2-.247a.177.177 0 0 0-.158.114 3.282 3.282 0 0 1-.055.133c.099-1.62.177-3.878.177-4.64 0-.845-.224-2.399-.321-3.027a.257.257 0 0 0-.008-.04l.103-.087.234-.212.224-.218c.075-.072.15-.15.219-.231l.016-.018-.046.553c-.115 1.417-.26 3.179-.221 4.119a42.43 42.43 0 0 1-.163 3.554zm-4.41.238l.02.125c.005.032.01.07.012.096a.096.096 0 0 0-.021.083l-.007.018a.467.467 0 0 1-.068.082.817.817 0 0 1-.4.21.749.749 0 0 1-.444-.046.828.828 0 0 1-.194-.117.452.452 0 0 1-.133-.16c-.004-.008-.005-.014-.007-.02l-.004-.018v-.004a.105.105 0 0 0 0-.024v-.011c.005-.038.013-.079.02-.12.016-.082.034-.165.053-.248l.225-.998a.055.055 0 0 0-.036-.064.055.055 0 0 0-.07.036c-.104.325-.203.652-.291.984a10.294 10.294 0 0 0-.073.307 1.962 1.962 0 0 0-.552-.08c-.647 0-1.161.28-1.575.507-.254.137-.473.257-.635.257a1.12 1.12 0 0 1-.935-.466 103.248 103.248 0 0 1-.194-4.962c0-.832.222-2.373.317-2.997a.158.158 0 0 1 .168-.135c.318.02.926.056 1.589.093l.356.02.148.12c.328.262.677.502 1.047.707a4.796 4.796 0 0 0 1.803.6c.212.019.427.03.64.016.426-.02.848-.11 1.248-.25a5.614 5.614 0 0 0 1.136-.563c.256-.163.497-.343.73-.532.102.665.307 2.123.307 2.922 0 .82-.09 3.37-.2 4.991a1.123 1.123 0 0 1-.911.436c-.162 0-.382-.12-.636-.258-.413-.226-.928-.506-1.575-.506-.23 0-.458.04-.683.123l-.013-.056-.033-.127a8.23 8.23 0 0 0-.155-.492.033.033 0 0 0-.038-.021.033.033 0 0 0-.027.038l.09.504zm4.442.484l-.015.152-.04.378c-.08.447-.255.912-.584 1.23-.397.384-.958.578-1.666.578-1.67 0-2.406-.636-2.591-.83a.148.148 0 0 0-.108-.047h-.001a.15.15 0 0 0-.108.047c-.183.195-.908.83-2.578.83-.755 0-1.337-.19-1.731-.566a1.67 1.67 0 0 1-.375-.558l-.004-.009a2.443 2.443 0 0 1-.145-.473l-.061-.575-.001-.008a3.35 3.35 0 0 1 .042-.634c.042.104.093.203.15.298.239.39.583.625.995.68.06.007.128.012.199.012.21 0 .45-.13.728-.282.394-.215.885-.483 1.482-.483.183 0 .365.03.542.086l.003.012c.004.014.008.03.014.042a.633.633 0 0 0 .185.237.988.988 0 0 0 .243.146.896.896 0 0 0 .56.053.938.938 0 0 0 .484-.278.636.636 0 0 0 .086-.123.244.244 0 0 0 .014-.034c.23-.094.464-.142.697-.142.597 0 1.088.269 1.482.484.278.152.517.283.729.283.043 0 .087-.003.135-.007.377-.033.69-.206.935-.513l.005-.006.032-.04c.092-.123.17-.268.236-.425.022.132.034.299.03.486zm-.346 2.158l-.027.209c-.053.405-.084.649-.084.732 0 .324-.618 1.034-1.501 1.738-.068.055-.14.109-.21.164l-.024.018a1.194 1.194 0 0 1-.043.032l-.09.066a9.94 9.94 0 0 1-.947.625 6.23 6.23 0 0 1-.769.39l-.175.07c-.301.113-.566.174-.78.174-.213 0-.484-.067-.794-.192l-.056-.023a4.673 4.673 0 0 1-.397-.187 9.29 9.29 0 0 1-1.081-.666c-.097-.068-.196-.14-.296-.215l-.035-.026h-.001l-.001-.002-.054-.04a8.717 8.717 0 0 1-.1-.079c-.062-.047-.123-.096-.183-.143-.973-.782-1.567-1.482-1.567-1.704 0-.082-.032-.323-.085-.723l-.026-.195-.06-.47a1.7 1.7 0 0 0 .176.2c.432.412 1.059.622 1.865.622 1.663 0 2.446-.619 2.687-.858.243.239 1.035.858 2.699.858.76 0 1.366-.213 1.8-.633.085-.082.159-.172.226-.267l-.067.524zm-1.328 5.485l-.001.02-.003.026-.006.03a.065.065 0 0 1-.004.02.147.147 0 0 1-.008.03c-.003.014-.008.026-.012.04l-.012.03-.014.031-.015.032a.853.853 0 0 0-.018.03.896.896 0 0 1-.179.218c-.052.046-.11.09-.173.127l-.031.02-.041.02c-.013.008-.026.014-.038.02a1.376 1.376 0 0 0-.038.018l-.07.027-.011.003-.03.012-.082.023-.038.008-.063.015-.03.003c-.01.003-.021.003-.031.005l-.042.006a1.085 1.085 0 0 1-.174.004c-.01 0-.02 0-.028-.002l-.084-.01a.457.457 0 0 1-.116-.025l-.04-.01a.338.338 0 0 1-.034-.012c-.022-.006-.044-.015-.066-.023-.013-.006-.025-.012-.04-.017a.734.734 0 0 1-.056-.027l-.04-.02a1.409 1.409 0 0 1-.215-.137l-.012-.008-.06-.046-.008-.007c-.007-.005-.015-.01-.022-.017a1.291 1.291 0 0 1-.06-.049l-.024-.021c-.022-.018-.043-.038-.065-.058a4.815 4.815 0 0 1-.104-.099l-.083-.081c-.061-.06-.118-.12-.173-.177l.002-.003a.43.43 0 0 0 .086-.174c.03-.102.052-.235.065-.38.01-.121.017-.252.016-.383v-.002l-.002-.105c.115-.044.23-.095.344-.148.225-.108.446-.229.652-.35.323-.191.61-.386.82-.538a9.1 9.1 0 0 0 .228-.165.662.662 0 0 1 .175.312c.008.035.012.07.012.104v.012a1.441 1.441 0 0 1-.225.756c-.124.2-.253.31-.256.311a.096.096 0 0 0 .06.171.094.094 0 0 0 .062-.021 1.41 1.41 0 0 0 .214-.232l.033.055a.794.794 0 0 1 .032.059l.03.06.03.067c.004.009.008.017.01.026l.004.006.003.009.006.014.02.058.018.06a1.122 1.122 0 0 0 .018.07.891.891 0 0 1 .018.095l.002.01.006.036v.002l.005.053a.87.87 0 0 1 .005.073c.002.024.002.05.002.075l-.001.035zm-2.536-.512c-.02.17-.05.303-.094.346-.16.16-.506.218-.701.218-.194 0-.541-.058-.701-.218-.05-.05-.083-.215-.101-.42a4.564 4.564 0 0 1-.012-.216v-.018a4.52 4.52 0 0 1-.002-.203c.29.108.574.175.826.175.25 0 .525-.06.806-.157.002.171-.005.346-.021.492zm-1.677.53l-.004.005-.002.003-.008.007-.008.008a7.308 7.308 0 0 1-.358.346l-.025.021c-.02.017-.038.034-.06.049l-.02.017-.008.006a.401.401 0 0 1-.041.032.28.28 0 0 1-.02.015l-.012.008a1.424 1.424 0 0 1-.216.136.753.753 0 0 1-.096.047l-.04.017a.875.875 0 0 1-.065.024l-.033.012-.04.012-.052.011a.457.457 0 0 1-.064.012.801.801 0 0 1-.084.01l-.028.001-.048.003c-.612 0-1.118-.421-1.118-.854 0-.026 0-.052.002-.076 0-.021.003-.041.004-.063v-.015l.008-.056c0-.008.002-.014.003-.021a1.13 1.13 0 0 0 .014-.078l.013-.056a.735.735 0 0 1 .017-.063l.006-.02.014-.046.006-.014.02-.055.026-.06a2.237 2.237 0 0 1 .086-.167l.024-.039c.109.145.204.226.213.233a.1.1 0 0 0 .062.021.093.093 0 0 0 .074-.036.096.096 0 0 0-.014-.136 1.484 1.484 0 0 1-.481-1.08.54.54 0 0 1 .068-.252.842.842 0 0 1 .162-.206 12.793 12.793 0 0 0 1.065.733l.002.002.17.1a6.898 6.898 0 0 0 .765.388l-.002.102v.002l-.001.096a.661.661 0 0 0-.247.096c-.15.094-.24.218-.246.226a.096.096 0 0 0 .024.133.096.096 0 0 0 .135-.023.682.682 0 0 1 .306-.227.19.19 0 0 1 .036-.01c0 .009 0 .018.002.027.02.3.072.558.158.645l.002.002-.046.046zm-4.281-8.111C1.1 13.915.46 11.12 2.148 11.009c.019.951.077 1.97.172 3.04l-.004.026zm11-8.66c.25-.341.526-.785.819-1.324a.853.853 0 0 0-.861-1.254 2.25 2.25 0 0 1-.25.017c-.16 0-.376-.026-.495-.145-.087-.087-.2-.22-.33-.373C11.505 1.52 10.214 0 8.207 0 7.096 0 6.113.224 5.284.664A5.067 5.067 0 0 0 3.42 2.39c-.2.304-.5.585-.791.854-.53.492-1.077.999-1.077 1.717 0 .434.07 1.133.15 1.942.117 1.16.249 2.477.21 3.384v.014c0 .134.002.271.004.414-.688.138-1.116.704-1.116 1.518 0 .49.154 1.009.423 1.42.245.378.557.622.898.713l.034.348c.087.846.176 1.55.253 2.144l.014.104c.04.31.08.603.08.663 0 .169.07.436.612 1.016.278.296.637.627 1.03.947a1.241 1.241 0 0 0-.153.19.969.969 0 0 0-.167.53c0 .322.083.634.24.914a1.852 1.852 0 0 0-.24.913c0 .625.674 1.175 1.442 1.175.645 0 1.129-.457 1.49-.824.315.149.672.154.723.154.05 0 .409-.005.723-.154.362.367.845.825 1.49.825.769 0 1.442-.55 1.442-1.176a1.86 1.86 0 0 0-.24-.915c.127-.227.24-.535.24-.912a.925.925 0 0 0-.09-.392 1.202 1.202 0 0 0-.186-.282c.596-.485 1.588-1.384 1.588-2.01 0-.06.04-.358.08-.672l.028-.215c.068-.52.156-1.222.236-2.027l.037-.375c.759-.274 1.246-1.293 1.223-2.162-.02-.747-.401-1.273-1.018-1.436a27.2 27.2 0 0 0 .004-.488v-.006l-.001-.007c-.038-.918.106-2.666.22-4.071.022-.261.043-.512.06-.748z" fill="#3C3C3C" mask="url(#d)"/></g><path d="M10.703 12.255c-.366.602-.906.86-1.804.86-1.26 0-1.535-.777-1.626-1.038-.072-.293-.13-.98.15-1.26.436-.434 2.437-.375 3.153-.146.095.03.169.112.218.244.159.426.018 1.16-.091 1.34m1.418-1.34c.049-.13.123-.214.219-.244.716-.229 2.716-.288 3.152.146.279.28.222.967.15 1.26-.091.262-.368 1.038-1.626 1.038-.898 0-1.438-.258-1.804-.86-.11-.18-.25-.914-.091-1.34m1.895 2.393c.944 0 1.537-.383 1.81-1.172l.003-.008c.069-.277.168-1.079-.2-1.448-.534-.532-2.675-.409-3.348-.194-.155.05-.27.171-.341.362a1.553 1.553 0 0 0-.083.517l-.288-.128a.332.332 0 0 0-.264-.002l-.248.104a1.512 1.512 0 0 0-.082-.49c-.07-.192-.186-.314-.34-.363-.674-.215-2.816-.338-3.348.194-.37.37-.27 1.171-.201 1.448l.003.008c.274.79.866 1.172 1.81 1.172.975 0 1.564-.285 1.97-.952.082-.136.165-.462.185-.804l.326-.139a.14.14 0 0 1 .11.001l.352.156a.058.058 0 0 0 .02.007c.024.333.105.646.184.78.406.666.995.951 1.97.951" fill="#3C3C3C"/></g></symbol><symbol id="icon-caelumFooter-hipsterstech" viewBox="0 0 24 25"><title>Logo-hipsters-pontotech</title><defs><path d="M.52.72l.075.005H.61c1.022.057 2.073.112 2.405.112h.006c.112 0 .312-.007.567-.018C4.669.774 6.755.65 7.464.608l.017-.001c.131 0 .244.095.264.226.019.127.044.295.071.491-1.168.913-2.264 1.294-3.293 1.294-1.468 0-2.797-.776-4.003-1.897z" id="a"/><path id="c" d="M17.898 0H.078v22.265h17.82V0z"/></defs><g fill="none" fill-rule="evenodd"><path d="M23.976 13.012C23.976 19.633 18.609 25 11.988 25 5.367 25 0 19.633 0 13.012 0 6.391 5.367 1.024 11.988 1.024c6.621 0 11.988 5.367 11.988 11.988" fill="#657176"/><path d="M17.753 3.45a.134.134 0 0 1-.088-.033 8.745 8.745 0 0 0-1.239-.901.135.135 0 0 1 .065-.253h.038l.032.018c.451.272.882.584 1.281.932a.136.136 0 0 1 .013.192.137.137 0 0 1-.102.046" fill="#3C3C3C"/><path d="M20.156 11.056a2.504 2.504 0 0 1-1.95 2.449l-.084.012-.042.003v.063c0 .114-.03.223-.145.223h-.548c.072-.974.122-2.032.122-3.103-.023-.576.018-1.44.081-2.357h.345c.114 0 .145.075.145.189v.057l.042.003.07.012a2.518 2.518 0 0 1 1.964 2.449m-13.47 2.75H6.04c-.114 0-.144-.11-.144-.223v-.064l-.042-.003-.085-.01a2.51 2.51 0 0 1 .014-4.9l.07-.012.043-.003v-.056c0-.114.03-.189.144-.189h.4l.021.026c.077.863.133 1.724.106 2.384 0 1.054.05 2.094.12 3.05" fill="#A6B0B1"/><path d="M18.138 3.316c-.4.05-.812.018-1.06-.23-.607-.607-1.95-2.73-4.274-2.73-2.325 0-3.818.966-4.717 2.342-.606.928-1.897 1.53-1.897 2.5 0 1.08.446 3.941.378 5.577 0 3.752.616 7.312.616 7.65 0 .662 3.355 3.521 4.87 3.521 1.516 0 4.84-2.657 4.84-3.522 0-.337.616-3.952.616-7.704-.05-1.18.176-3.555.3-5.174l.11-.146c.318-.404.524-.8.78-1.272a.553.553 0 0 0-.562-.812" fill="#A6B0B1"/><path d="M17.078 9.845c0 .968-.12 4.287-.26 5.896-.052.002-9.521 0-9.596-.01-.14-1.53-.256-4.918-.256-5.879 0-.883.238-2.533.333-3.15a.27.27 0 0 1 .28-.229c.12.008.279.018.465.027l.013.002c.092.005.189.01.292.017.269.014.573.032.889.05l.282.016c.025.003.05.003.075.005h.015c1.029.058 2.087.112 2.412.112.112 0 .31-.006.566-.018 1.082-.046 3.167-.17 3.876-.212.139-.009.26.09.28.227.02.125.045.293.073.49.11.766.26 1.954.26 2.656" fill="#FFF"/><path d="M16.48 6.607h-.017c-.709.043-2.794.167-3.876.212-.254.012-.454.018-.566.018h-.006c-.332 0-1.384-.054-2.406-.111l-.015-.001-.075-.004c1.206 1.12 2.536 1.898 4.004 1.898 1.028 0 2.125-.382 3.293-1.295a24.867 24.867 0 0 0-.072-.49.267.267 0 0 0-.264-.227" fill="#E7F1F5"/><g transform="translate(9 6)"><mask id="b" fill="#fff"><use xlink:href="#a"/></mask><path fill="#E7F1F5" mask="url(#b)" d="M.52 2.619h7.297V.607H.52z"/></g><path d="M8.806 5.849c2.345 2.345 5.174 3.505 8.596.084l-8.596-.084z" fill="#A6B0B1"/><path d="M11.666 21.09h-.056c-1.028-.004-1.938-.143-1.947-.144a.1.1 0 0 1-.086-.115.102.102 0 0 1 .116-.085c.036.006 3.56.535 4.583-.488.692-.692.054-2.478.048-2.496a.1.1 0 0 1 .06-.13.1.1 0 0 1 .13.06c.028.079.688 1.926-.094 2.709-.46.458-1.384.69-2.753.69" fill="#A0A9AA"/><path d="M10.575 20.1c-1.072 0-2.093-.137-2.172-.148a.101.101 0 1 1 .027-.201c.01 0 .911.124 1.9.143 1.29.025 2.14-.131 2.461-.452.761-.76-.236-2.042-.246-2.055a.102.102 0 0 1 .017-.142.1.1 0 0 1 .142.017c.046.058 1.12 1.436.23 2.323-.405.406-1.402.515-2.359.515" fill="#A0A9AA"/><path d="M10.269 19.03c-.326 0-.717-.022-1.176-.066a25.572 25.572 0 0 1-1.797-.24.1.1 0 0 1-.082-.118.102.102 0 0 1 .117-.082c.941.165 3.485.511 3.953.134a.192.192 0 0 0 .077-.155c.006-.295-.452-.76-.629-.913a.101.101 0 0 1 .133-.153c.072.063.707.628.698 1.07a.394.394 0 0 1-.152.31c-.178.142-.555.213-1.142.213m6.22.234a.102.102 0 0 1-.095-.066 88.074 88.074 0 0 0-.62-1.58.102.102 0 0 1 .055-.133.102.102 0 0 1 .132.056c.295.726.57 1.448.622 1.585a.102.102 0 0 1-.058.131.113.113 0 0 1-.036.006m1.496-14.686c-.453 0-1.061-.148-1.763-.439-1.91-.79-3.844-2.345-3.844-3.783a.101.101 0 1 1 .203 0c0 1.335 1.916 2.85 3.718 3.596 1.078.446 1.957.551 2.242.267a.102.102 0 0 1 .143 0 .102.102 0 0 1 0 .143c-.145.145-.385.216-.7.216m-.822 1.213c-.312 0-.675-.043-1.006-.106-2.168-.413-5.126-1.875-6.326-4.64a.101.101 0 1 1 .186-.081c1.168 2.693 4.058 4.119 6.178 4.522.847.16 1.419.117 1.546-.01a.1.1 0 0 1 .143 0 .1.1 0 0 1 0 .144c-.124.124-.395.172-.721.172" fill="#A0A9AA"/><path d="M14.976 6.745c-.472 0-.972-.044-1.477-.137C12.305 6.39 9.38 5.565 8.06 2.64a.102.102 0 0 1 .052-.134.1.1 0 0 1 .134.051c1.28 2.837 4.127 3.64 5.29 3.852 1.659.303 3.247.086 3.86-.53a.103.103 0 0 1 .144 0 .1.1 0 0 1 0 .143c-.465.466-1.43.723-2.563.723" fill="#A0A9AA"/><path d="M17.254 15.345a74.385 74.385 0 0 1-.245 2.11c.388-.704.402-1.629.311-2.046a.078.078 0 0 0-.066-.064m-10.435.006a.082.082 0 0 0-.049.06c-.096.443-.129 1.454.313 2.169a74.144 74.144 0 0 1-.264-2.229" fill="#EFBD77"/><path d="M17.24 15.344a.083.083 0 0 0-.08.055 1.946 1.946 0 0 1-.254.476 1.287 1.287 0 0 1-1.074.549c-.37 0-.884-.46-1.585-.683h-1.391a2.002 2.002 0 0 0-.167.067l-1.342-.024a3.011 3.011 0 0 0-.114-.044l-1.38-.001c-.705.221-1.222.685-1.592.685-.068 0-.132-.005-.194-.013-.484-.065-.784-.366-.966-.662a2.052 2.052 0 0 1-.17-.35.082.082 0 0 0-.111-.048c.092.912.19 1.684.263 2.229.076.124.166.239.273.34.383.366.976.621 1.878.621.906 0 1.555-.18 2-.382a3 3 0 0 0-.502-.569.102.102 0 0 1-.01-.143.103.103 0 0 1 .077-.035c.024 0 .047.008.066.025.05.043.36.32.55.632a2.24 2.24 0 0 0 .584-.428.058.058 0 0 1 .04-.017c.014 0 .029.006.039.017.098.102.379.361.908.575a3.048 3.048 0 0 0-.441-.829.102.102 0 0 1 .159-.126c.026.033.383.491.524 1.043.344.113.773.202 1.297.228a5.389 5.389 0 0 0-.202-.77.102.102 0 0 1 .095-.136c.042 0 .08.026.095.067.013.033.14.389.22.846l.125.002c.48 0 .874-.084 1.195-.223-.086-.219-.182-.46-.28-.701a.101.101 0 1 1 .188-.076l.274.687a1.915 1.915 0 0 0 .775-.772c.068-.537.16-1.264.245-2.111l-.015-.001" fill="#A0A9AA"/><path d="M13.521 15.625c-.247 0-.47.048-.666.117h1.393a2.375 2.375 0 0 0-.726-.117m-2.953 0c-.258 0-.496.045-.716.114.437 0 .902 0 1.38.002a1.97 1.97 0 0 0-.664-.116" fill="#E8E9E4"/><path d="M14.418 17.626a.1.1 0 0 0-.095.136c.002.008.121.34.201.77a6.9 6.9 0 0 0 .21.008 5.522 5.522 0 0 0-.22-.847.102.102 0 0 0-.096-.067m-1.794-.403a.1.1 0 0 0-.062.02.102.102 0 0 0-.016.144c.005.007.29.373.44.829.075.03.156.06.242.088a3.156 3.156 0 0 0-.524-1.043.102.102 0 0 0-.08-.038m-1.825.189a.101.101 0 0 0-.066.178 3 3 0 0 1 .5.569c.066-.03.127-.06.183-.09a3.076 3.076 0 0 0-.551-.632.1.1 0 0 0-.066-.025m5.068.066a.102.102 0 0 0-.038.007.102.102 0 0 0-.056.132c.098.24.194.482.28.7a1.92 1.92 0 0 0 .182-.09l-.274-.686a.102.102 0 0 0-.094-.063" fill="#9A9FA0"/><path d="M16.617 17.1c-.384.372-.962.632-1.81.632-1.806 0-2.602-.713-2.78-.9a.054.054 0 0 0-.078 0c-.176.188-.96.9-2.766.9-.9 0-1.495-.255-1.878-.62-.723-.691-.698-1.991-.586-2.51.018-.082.131-.09.161-.012.04.104.094.226.171.35.181.296.482.598.965.662.062.008.126.013.194.013.486 0 1.223-.8 2.31-.8.295 0 .557.069.776.16l1.342.024a2.05 2.05 0 0 1 .833-.183c1.085 0 1.823.799 2.31.799a1.287 1.287 0 0 0 1.074-.549c.121-.163.202-.337.255-.476.03-.078.143-.071.16.01.112.516.063 1.808-.653 2.5" fill="#A0A9AA"/><path d="M12.57 14.148c.096.37.177.706.177.788 0 .202-.354.505-.76.505-.403 0-.757-.303-.757-.505 0-.134.213-.941.357-1.471" fill="#FFF"/><g transform="translate(3)"><mask id="d" fill="#fff"><use xlink:href="#c"/></mask><path d="M17.628 10.908h-.141a2.85 2.85 0 0 0-2.146-2.612.522.522 0 0 0-.117-.2.408.408 0 0 0-.27-.122c.039-.511.08-1.027.122-1.53.023-.276.045-.54.064-.787.207-.284.429-.631.663-1.038a8.645 8.645 0 0 1 1.825 5.31v.979zm-1.1 1.652a2.421 2.421 0 0 1-1.346.845l-.054.005V8.7l.046.005a2.431 2.431 0 0 1 1.879 2.35c0 .546-.186 1.08-.525 1.504zm-1.771-7.125a.186.186 0 0 0-.011.02.102.102 0 0 0-.036.07 3.44 3.44 0 0 1-.363.4l-.236.224-.242.215c-.067.058-.134.112-.201.168a8.669 8.669 0 0 1-.834.607c-.363.23-.748.425-1.15.568a4.39 4.39 0 0 1-1.248.253c-.851.051-1.701-.192-2.452-.601A7.742 7.742 0 0 1 6.91 6.64c-.342-.263-.646-.57-1.013-.817a.038.038 0 0 0-.04 0 .035.035 0 0 0-.01.05c.155.228.345.423.548.604l-.152-.01c-.516-.029-1.001-.058-1.352-.079l-.306-.018a.366.366 0 0 0-.387.313c-.101.656-.335 2.279-.335 3.16 0 .748.074 3.138.183 4.879a2.317 2.317 0 0 1-.072-.17.182.182 0 0 0-.137-.115c-.018-.215-.036-.429-.05-.639a41.69 41.69 0 0 1-.12-3.037c.024-.565-.01-1.327-.105-2.398a.465.465 0 0 0-.004-.037c-.035-.39-.074-.776-.111-1.15-.084-.837-.157-1.561-.157-1.997 0-.558.478-1.002.984-1.47.324-.3.659-.611.896-.974.212-.325.449-.615.71-.87l.15-.14C6.985.872 8.249.44 9.803.44c1.894 0 3.109 1.43 3.835 2.285.142.167.265.311.368.414.236.238.62.325 1.144.26a.452.452 0 0 1 .439.197.44.44 0 0 1 .009.491l-.084.154c-.27.482-.524.885-.757 1.196zm.169 3.003v5.218l-.006.015h-.422c.074-1.043.112-2.041.112-2.971-.02-.487.006-1.236.077-2.286h.23a.123.123 0 0 1 .009.024zm-.518 2.265c0 .963-.041 2.006-.122 3.097-.014.201-.031.41-.05.64-.011-.002-.022-.005-.033-.005a.184.184 0 0 0-.187.118l-.016.038c.104-1.714.179-3.971.179-4.745 0-.883-.234-2.506-.334-3.16-.002-.016-.006-.029-.01-.043l.159-.135c.08-.075.164-.147.244-.223l.236-.232c.075-.07.145-.147.212-.228l-.052.65c-.05.612-.102 1.245-.145 1.864-.075 1.09-.101 1.864-.081 2.364zm-2.426 9.707c-1.155.875-2.276 1.416-2.928 1.416-.638 0-1.738-.556-2.941-1.49-1.13-.877-1.828-1.683-1.828-1.93 0-.084-.032-.328-.085-.73l-.08-.613c.037.043.075.084.115.122.45.43 1.106.648 1.948.648 1.738 0 2.555-.646 2.805-.896.255.25 1.082.895 2.819.895.795 0 1.427-.222 1.88-.66.117-.113.217-.24.3-.375-.041.343-.08.643-.111.886a9.947 9.947 0 0 0-.083.724c0 .366-.762 1.21-1.811 2.003zM9.63 14.684l.02.13c.005.027.01.056.012.082l-.014.091c-.004.01-.008.02-.014.03a.514.514 0 0 1-.07.088.835.835 0 0 1-.417.218.77.77 0 0 1-.464-.048.83.83 0 0 1-.203-.122.467.467 0 0 1-.14-.167c-.004-.007-.004-.014-.006-.02l-.004-.015c0-.008 0-.016-.002-.024 0-.005 0-.012.002-.02.005-.04.012-.082.02-.126.017-.086.036-.173.055-.258l.236-1.043a.058.058 0 0 0-.038-.068.058.058 0 0 0-.072.037c-.11.34-.214.684-.305 1.03-.022.088-.044.175-.064.264a.812.812 0 0 0-.015.07 2.066 2.066 0 0 0-.63-.099c-.675 0-1.213.293-1.645.53-.265.145-.495.27-.663.27-.06 0-.12-.005-.181-.012a1.157 1.157 0 0 1-.756-.428 106.263 106.263 0 0 1-.207-5.23c0-.867.233-2.478.333-3.13a.164.164 0 0 1 .174-.14l.307.018c.352.02.836.05 1.352.079l.248.013.17.01.134.109c.345.274.71.526 1.099.74a5.39 5.39 0 0 0 1.235.5 4.19 4.19 0 0 0 1.329.137 4.557 4.557 0 0 0 1.308-.271 5.98 5.98 0 0 0 1.189-.595c.248-.16.484-.337.712-.522.105.695.32 2.217.32 3.053 0 .838-.088 3.425-.206 5.165a1.182 1.182 0 0 1-.99.504c-.17 0-.398-.127-.664-.27-.431-.236-.97-.53-1.645-.53-.221 0-.443.037-.661.11a.611.611 0 0 0-.01-.04l-.034-.132a9.265 9.265 0 0 0-.161-.513.036.036 0 0 0-.04-.023.035.035 0 0 0-.03.04l.096.527zm-5.824-.003c.045.11.097.215.157.312.249.406.609.652 1.039.71.07.008.138.014.207.014.22 0 .47-.138.76-.296.412-.224.925-.505 1.55-.505.21 0 .42.037.626.11a.217.217 0 0 0 .012.037.668.668 0 0 0 .193.246c.077.065.163.115.254.154.18.078.39.1.585.055a.98.98 0 0 0 .506-.292.588.588 0 0 0 .089-.127.369.369 0 0 0 .024-.06c.218-.08.44-.123.662-.123.624 0 1.137.28 1.549.505.29.159.54.295.76.295.047 0 .093-.002.142-.005.414-.037.755-.235 1.015-.585l.01-.016.009-.011a2.01 2.01 0 0 0 .227-.418c.057.33.048.885-.107 1.41l-.005.005-.003.02c-.104.34-.27.668-.521.91-.414.401-1 .605-1.74.605-1.743 0-2.512-.665-2.705-.869a.16.16 0 0 0-.227 0c-.19.204-.947.869-2.692.869-.787 0-1.396-.2-1.807-.593a1.64 1.64 0 0 1-.315-.419l-.008-.014c-.356-.674-.312-1.552-.246-1.925zm-.751-1.01l-.006-.013v-5.22a.123.123 0 0 1 .009-.024h.305c.059.667.132 1.62.102 2.343 0 .91.037 1.89.11 2.915h-.52zm-.303-5.575a.512.512 0 0 0-.118.2 2.85 2.85 0 0 0-2.146 2.612h-.14V9.93A8.59 8.59 0 0 1 1.92 4.96a8.629 8.629 0 0 1 3.022-2.665c-.046.066-.093.133-.138.2-.208.32-.522.61-.827.893C3.424 3.9 2.853 4.43 2.853 5.18c0 .455.073 1.183.157 2.027l.076.766H3.04a.402.402 0 0 0-.288.121zm.094 5.313l-.052-.004a2.412 2.412 0 0 1-1.872-2.35A2.43 2.43 0 0 1 2.8 8.707l.046-.006v4.708zm13.099-9.044l.05-.091a.891.891 0 0 0-.9-1.31c-.093.01-.18.017-.26.017-.168 0-.395-.027-.52-.151a7.88 7.88 0 0 1-.344-.39C13.248 1.588 11.9 0 9.802 0c-1.158 0-2.185.234-3.05.696A5.167 5.167 0 0 0 5.338 1.8a8.894 8.894 0 0 0-3.64 3.003A8.849 8.849 0 0 0 .079 9.93v1.857c0 .075.06.136.135.136a.136.136 0 0 0 .135-.136v-.677h.137c.013.627.23 1.237.62 1.724a2.86 2.86 0 0 0 1.538.986c.023.06.057.118.106.168a.409.409 0 0 0 .292.123h.33l.03.375a.296.296 0 0 0-.011.045c-.091.42-.152 1.416.25 2.228.048.383.09.712.126.98.04.311.079.605.08.668 0 .174.073.454.639 1.06.357.38.839.813 1.359 1.216.614.476 2.155 1.582 3.21 1.582 1.117 0 2.725-1.15 3.192-1.505.465-.353 1.985-1.564 1.985-2.354 0-.061.04-.358.08-.674.05-.383.118-.904.188-1.52.127-.434.18-.947.143-1.387.022-.24.043-.48.06-.714h.234a.408.408 0 0 0 .29-.123.495.495 0 0 0 .108-.168 2.86 2.86 0 0 0 1.536-.986c.39-.487.609-1.098.62-1.723h.138v.676c0 .075.06.136.135.136a.136.136 0 0 0 .135-.136V9.93c0-2.026-.691-3.99-1.952-5.564z" fill="#3C3C3C" mask="url(#d)"/></g><path d="M11.233 12.818c-.382.629-.946.897-1.884.897-1.314 0-1.603-.81-1.698-1.084-.075-.305-.135-1.022.158-1.314.454-.455 2.543-.392 3.291-.154.1.032.176.118.228.256.166.444.02 1.21-.095 1.399m1.481-1.4c.052-.137.128-.223.228-.255.35-.111.99-.184 1.621-.184.721 0 1.428.095 1.67.338.293.292.233 1.009.158 1.314-.095.274-.384 1.084-1.697 1.084-.939 0-1.503-.268-1.885-.897-.114-.188-.26-.955-.095-1.4m1.98 2.5c.985 0 1.603-.401 1.89-1.224l.003-.01c.072-.288.175-1.125-.21-1.511-.557-.556-2.793-.427-3.497-.203-.16.052-.28.179-.355.378a1.587 1.587 0 0 0-.086.522l-.302-.134a.353.353 0 0 0-.276-.002l-.258.11a1.594 1.594 0 0 0-.085-.496c-.075-.2-.194-.326-.356-.378-.704-.224-2.94-.353-3.496.203-.386.386-.283 1.223-.21 1.512l.003.009c.286.823.904 1.224 1.89 1.224 1.02 0 1.634-.298 2.057-.995.088-.144.175-.494.194-.858l.341-.144a.137.137 0 0 1 .114 0l.368.164a.09.09 0 0 0 .02.006c.022.355.108.69.193.832.424.697 1.04.995 2.058.995" fill="#3C3C3C"/></g></symbol><symbol id="icon-caelumFooter-musicdot" viewBox="0 0 24 24"><circle fill="#657176" cx="12" cy="12" r="11.5"/><path fill="#D0D8D8" d="M16.671 8.549a.662.662 0 0 0-.182-.478l-.86-.9-1.388-1.452a.664.664 0 0 0-.47-.203.63.63 0 0 0-.469.182.629.629 0 0 0-.202.461.642.642 0 0 0 .186.474l1.388 1.452.86.9a.64.64 0 0 0 .465.207.633.633 0 0 0 .469-.182.634.634 0 0 0 .203-.461z"/><path fill="#FFF" d="M14.242 5.719a.68.68 0 0 0-.494-.203.655.655 0 0 0-.47.207.635.635 0 0 0-.187.471v5.983a3.427 3.427 0 0 0-2.221-.778c-.978 0-1.814.346-2.505 1.037a3.414 3.414 0 0 0-1.038 2.505c0 .978.346 1.814 1.038 2.505a3.413 3.413 0 0 0 2.505 1.037c.97 0 1.805-.346 2.505-1.038.692-.683 1.038-1.518 1.038-2.505V6.194c.001-.19-.042-.351-.171-.475z"/></symbol><symbol id="icon-caelumFooter-novo-logo-caelum" viewBox="0 0 32 32"><style/><switch><g><path fill="#667177" class="st0" d="M10 5v7h12V1zM10 31l12-4v-7H10z"/></g></switch></symbol></defs></svg>
